<svg preserveAspectRatio="none" width="100%" height="100%" overflow="visible" style="display: block;" viewBox="0 0 170.24 51.2002" fill="none" xmlns="http://www.w3.org/2000/svg">
<g id="Group 5">
<g id="Symoda">
<path d="M12.8566 2.44718C15.5052 2.44718 17.7968 2.95144 19.7312 3.95997C21.6657 4.93884 23.3025 6.39232 24.6417 8.32039L21.4276 11.3905C20.2967 9.67005 19.017 8.43905 17.5885 7.69748C16.1897 6.92625 14.5231 6.54063 12.5887 6.54063C11.1602 6.54063 9.98466 6.73344 9.06208 7.11906C8.13951 7.50467 7.45502 8.02377 7.00861 8.67635C6.59196 9.29927 6.38364 10.0112 6.38364 10.8121C6.38364 11.7316 6.69612 12.5325 7.32109 13.2147C7.97583 13.897 9.18113 14.4309 10.937 14.8165L16.9189 16.1514C19.7759 16.7743 21.7996 17.7235 22.99 18.999C24.1804 20.2745 24.7756 21.8911 24.7756 23.8488C24.7756 25.6583 24.2846 27.2304 23.3025 28.5652C22.3204 29.9 20.9514 30.9234 19.1955 31.6353C17.4694 32.3472 15.4308 32.7032 13.0798 32.7032C10.9965 32.7032 9.12161 32.4362 7.45502 31.9023C5.78843 31.3683 4.33016 30.6416 3.08022 29.7221C1.83027 28.8025 0.803535 27.7495 0 26.563L3.30342 23.2704C3.92839 24.3086 4.71705 25.243 5.66938 26.0735C6.62172 26.8744 7.72286 27.4973 8.9728 27.9423C10.2525 28.3872 11.6661 28.6097 13.2137 28.6097C14.5827 28.6097 15.7582 28.4466 16.7403 28.1203C17.7522 27.794 18.5111 27.3194 19.017 26.6965C19.5527 26.0439 19.8205 25.2726 19.8205 24.3828C19.8205 23.5225 19.5229 22.7661 18.9277 22.1136C18.3623 21.461 17.2909 20.9567 15.7136 20.6008L9.24065 19.1325C7.45502 18.7468 5.98187 18.1981 4.82121 17.4862C3.66055 16.7743 2.79749 15.9141 2.23204 14.9055C1.66659 13.8673 1.38387 12.7105 1.38387 11.435C1.38387 9.77387 1.83027 8.2759 2.72309 6.94108C3.64567 5.57659 4.97001 4.4939 6.69612 3.69301C8.42223 2.86245 10.4757 2.44718 12.8566 2.44718Z" fill="var(--fill-0, #171717)"/>
<path d="M49.1037 10.0112L39.3274 34.8834C38.6727 36.6038 37.9584 37.9683 37.1846 38.9768C36.4406 39.9854 35.5776 40.7121 34.5955 41.157C33.6134 41.602 32.4676 41.8244 31.1581 41.8244C30.0868 41.8244 29.0898 41.6761 28.1672 41.3795C27.2744 41.1125 26.4857 40.7418 25.8012 40.2672L26.9619 36.5741C27.5274 37.0487 28.1226 37.4047 28.7475 37.642C29.4023 37.8793 30.1016 37.998 30.8457 37.998C31.6492 37.998 32.3634 37.7755 32.9884 37.3305C33.6431 36.9153 34.2235 36.0699 34.7294 34.7944L35.7115 32.3917L33.3455 26.8744L26.3816 10.0112H31.7385L36.6936 23.9823L37.9882 28.1648L39.4613 23.5819L44.1486 10.0112H49.1037Z" fill="var(--fill-0, #171717)"/>
<path d="M52.8594 32.2582V10.0112H57.1003L57.3235 13.7487C58.0973 12.3249 59.124 11.2718 60.4037 10.5896C61.7132 9.90735 63.097 9.56623 64.5553 9.56623C66.1624 9.56623 67.6355 9.93701 68.9747 10.6786C70.3437 11.3905 71.3705 12.4732 72.0549 13.9266C72.5311 12.9478 73.1858 12.1321 74.0191 11.4795C74.8524 10.8269 75.775 10.3523 76.7869 10.0557C77.7987 9.72937 78.7957 9.56623 79.7778 9.56623C81.2063 9.56623 82.5455 9.86286 83.7955 10.4561C85.0454 11.0494 86.0573 11.9541 86.8311 13.1703C87.6048 14.3864 87.9917 15.9437 87.9917 17.8421V32.2582H83.2152V18.5985C83.2152 16.7891 82.7836 15.4839 81.9206 14.683C81.0575 13.8822 79.9564 13.4817 78.6171 13.4817C77.5755 13.4817 76.6083 13.7338 75.7155 14.2381C74.8524 14.7424 74.1531 15.4988 73.6174 16.5073C73.0817 17.4862 72.8138 18.7023 72.8138 20.1558V32.2582H68.0373V18.5985C68.0373 16.7891 67.6057 15.4839 66.7427 14.683C65.8796 13.8822 64.7785 13.4817 63.4393 13.4817C62.5465 13.4817 61.6536 13.719 60.7608 14.1936C59.868 14.6682 59.124 15.4098 58.5288 16.4183C57.9336 17.4269 57.636 18.7617 57.636 20.4228V32.2582H52.8594Z" fill="var(--fill-0, #171717)"/>
<path d="M104.601 9.56623C106.774 9.56623 108.694 10.026 110.36 10.9455C112.027 11.8651 113.321 13.1999 114.244 14.95C115.196 16.6705 115.672 18.732 115.672 21.1347C115.672 23.5374 115.196 25.6138 114.244 27.3639C113.321 29.0843 112.027 30.4043 110.36 31.3238C108.694 32.2434 106.774 32.7032 104.601 32.7032C102.429 32.7032 100.509 32.2434 98.8428 31.3238C97.1762 30.4043 95.8668 29.0843 94.9144 27.3639C93.9621 25.6138 93.4859 23.5374 93.4859 21.1347C93.4859 18.732 93.9621 16.6705 94.9144 14.95C95.8668 13.1999 97.1762 11.8651 98.8428 10.9455C100.509 10.026 102.429 9.56623 104.601 9.56623ZM104.601 13.3037C103.262 13.3037 102.116 13.6152 101.164 14.2381C100.242 14.8314 99.5273 15.7064 99.0214 16.8633C98.5155 18.0201 98.2625 19.4439 98.2625 21.1347C98.2625 22.7958 98.5155 24.2196 99.0214 25.4061C99.5273 26.563 100.242 27.4529 101.164 28.0758C102.116 28.669 103.262 28.9657 104.601 28.9657C105.941 28.9657 107.072 28.669 107.994 28.0758C108.917 27.4529 109.631 26.563 110.137 25.4061C110.643 24.2196 110.896 22.7958 110.896 21.1347C110.896 19.4439 110.643 18.0201 110.137 16.8633C109.631 15.7064 108.917 14.8314 107.994 14.2381C107.072 13.6152 105.941 13.3037 104.601 13.3037Z" fill="var(--fill-0, #171717)"/>
<path d="M129.934 32.7032C128.088 32.7032 126.407 32.2434 124.889 31.3238C123.401 30.4043 122.226 29.0843 121.363 27.3639C120.5 25.6434 120.068 23.5819 120.068 21.1792C120.068 18.6875 120.529 16.5815 121.452 14.861C122.374 13.1406 123.61 11.8354 125.157 10.9455C126.705 10.026 128.401 9.56623 130.246 9.56623C132.151 9.56623 133.758 10.0853 135.067 11.1235C136.377 12.1617 137.255 13.5114 137.701 15.1725L137.165 15.6619V0H141.942V32.2582H137.701L137.344 26.207L137.969 26.2515C137.761 27.5863 137.27 28.7432 136.496 29.7221C135.722 30.6713 134.755 31.4128 133.594 31.9468C132.463 32.451 131.243 32.7032 129.934 32.7032ZM130.96 28.8767C132.24 28.8767 133.341 28.5504 134.264 27.8978C135.186 27.2452 135.901 26.3257 136.407 25.1392C136.912 23.9527 137.165 22.5288 137.165 20.8677C137.165 19.3253 136.912 18.0053 136.407 16.9078C135.901 15.7806 135.186 14.9204 134.264 14.3271C133.371 13.7338 132.329 13.4372 131.139 13.4372C129.145 13.4372 127.597 14.1195 126.496 15.4839C125.395 16.8484 124.845 18.732 124.845 21.1347C124.845 23.5374 125.38 25.4358 126.452 26.8299C127.523 28.1944 129.026 28.8767 130.96 28.8767Z" fill="var(--fill-0, #171717)"/>
<path d="M161.933 17.9756C161.933 16.4925 161.516 15.3505 160.683 14.5496C159.879 13.719 158.763 13.3037 157.335 13.3037C155.995 13.3037 154.85 13.6152 153.897 14.2381C152.945 14.861 152.246 15.8696 151.799 17.2637L147.781 15.5729C148.347 13.7635 149.448 12.31 151.085 11.2125C152.752 10.115 154.894 9.56623 157.513 9.56623C159.299 9.56623 160.876 9.86286 162.245 10.4561C163.614 11.0197 164.685 11.8799 165.459 13.0368C166.263 14.1936 166.665 15.6768 166.665 17.4862V27.4084C166.665 28.5059 167.215 29.0546 168.316 29.0546C168.852 29.0546 169.373 28.9805 169.879 28.8322L169.611 32.1247C168.926 32.451 168.063 32.6142 167.022 32.6142C166.069 32.6142 165.206 32.451 164.433 32.1247C163.689 31.7688 163.093 31.2497 162.647 30.5674C162.23 29.8555 162.022 28.9805 162.022 27.9423V27.6308L163.004 27.5863C162.736 28.7432 162.186 29.7072 161.352 30.4785C160.519 31.22 159.552 31.7836 158.451 32.1692C157.35 32.5252 156.233 32.7032 155.103 32.7032C153.704 32.7032 152.439 32.4807 151.308 32.0357C150.207 31.5908 149.329 30.9234 148.674 30.0335C148.049 29.114 147.737 27.9868 147.737 26.652C147.737 24.9908 148.273 23.6264 149.344 22.5585C150.445 21.4906 151.993 20.7639 153.987 20.3783L162.647 18.6875L162.602 22.0246L156.308 23.3149C155.058 23.5522 154.12 23.8933 153.496 24.3383C152.871 24.7832 152.558 25.4358 152.558 26.296C152.558 27.1266 152.871 27.794 153.496 28.2982C154.15 28.7728 155.013 29.0101 156.085 29.0101C156.829 29.0101 157.543 28.9212 158.227 28.7432C158.942 28.5652 159.582 28.2834 160.147 27.8978C160.712 27.4825 161.144 26.9634 161.442 26.3405C161.769 25.6879 161.933 24.9167 161.933 24.0268V17.9756Z" fill="var(--fill-0, #171717)"/>
</g>
<g id="Technology group">
<path d="M65.0417 40.0766V41.0301H62.1081V48.467H61.0878V41.0301H58.1542V40.0766H65.0417Z" fill="var(--fill-0, #171717)"/>
<path d="M68.2069 48.5941C67.6032 48.5941 67.0632 48.4627 66.587 48.2C66.1194 47.9373 65.7537 47.5601 65.4902 47.0686C65.2266 46.5685 65.0948 45.9753 65.0948 45.2888C65.0948 44.6023 65.2266 44.0133 65.4902 43.5218C65.7537 43.0217 66.1151 42.6404 66.5743 42.3776C67.0334 42.1149 67.5564 41.9835 68.1431 41.9835C68.7383 41.9835 69.2442 42.1107 69.6609 42.3649C70.086 42.6192 70.4091 42.9666 70.6302 43.4073C70.8513 43.8396 70.9618 44.3269 70.9618 44.8693C70.9618 45.0134 70.9576 45.1447 70.9491 45.2634C70.9406 45.382 70.9278 45.488 70.9108 45.5812H65.758V44.6786H70.4644L69.9415 44.7803C69.9415 44.1701 69.7714 43.6997 69.4313 43.3692C69.0997 43.0387 68.6618 42.8734 68.1176 42.8734C67.7009 42.8734 67.3396 42.9709 67.0334 43.1658C66.7358 43.3523 66.502 43.6277 66.3319 43.9921C66.1704 44.3481 66.0896 44.7803 66.0896 45.2888C66.0896 45.7888 66.1746 46.2211 66.3447 46.5855C66.5148 46.9499 66.7528 47.2296 67.059 47.4245C67.3736 47.611 67.7477 47.7042 68.1814 47.7042C68.649 47.7042 69.0274 47.6152 69.3165 47.4372C69.6141 47.2593 69.8522 47.0177 70.0308 46.7126L70.8343 47.183C70.6727 47.4711 70.4644 47.7212 70.2093 47.933C69.9627 48.1449 69.6694 48.3102 69.3293 48.4288C68.9976 48.539 68.6235 48.5941 68.2069 48.5941Z" fill="var(--fill-0, #171717)"/>
<path d="M75.8615 41.9835C76.3036 41.9835 76.6905 42.0513 77.0221 42.1869C77.3622 42.3225 77.6556 42.5175 77.9022 42.7717C78.1488 43.026 78.3486 43.3268 78.5017 43.6743L77.5323 44.132C77.3963 43.7252 77.1879 43.4158 76.9073 43.2039C76.6352 42.9836 76.2781 42.8734 75.836 42.8734C75.4108 42.8734 75.0452 42.9709 74.7391 43.1658C74.433 43.3523 74.1991 43.6277 74.0376 43.9921C73.876 44.3481 73.7952 44.7803 73.7952 45.2888C73.7952 45.7888 73.876 46.2211 74.0376 46.5855C74.1991 46.9499 74.433 47.2296 74.7391 47.4245C75.0452 47.611 75.4108 47.7042 75.836 47.7042C76.1676 47.7042 76.4524 47.6534 76.6905 47.5517C76.9371 47.45 77.1369 47.3016 77.29 47.1067C77.4515 46.9118 77.5621 46.6745 77.6216 46.3948L78.5654 46.7253C78.4209 47.1152 78.2211 47.45 77.966 47.7296C77.7194 48.0093 77.4175 48.2254 77.0604 48.378C76.7118 48.5221 76.3121 48.5941 75.8615 48.5941C75.2663 48.5941 74.7348 48.4627 74.2672 48.2C73.7995 47.9373 73.4339 47.5601 73.1703 47.0686C72.9067 46.5685 72.7749 45.9753 72.7749 45.2888C72.7749 44.6023 72.9067 44.0133 73.1703 43.5218C73.4339 43.0217 73.7995 42.6404 74.2672 42.3776C74.7348 42.1149 75.2663 41.9835 75.8615 41.9835Z" fill="var(--fill-0, #171717)"/>
<path d="M80.6772 48.467V39.1868H81.6976V43.0641C81.9186 42.6827 82.212 42.4073 82.5776 42.2378C82.9432 42.0683 83.3429 41.9835 83.7765 41.9835C84.2357 41.9835 84.6524 42.0725 85.0265 42.2505C85.4006 42.42 85.6982 42.6827 85.9193 43.0387C86.1489 43.3946 86.2637 43.8481 86.2637 44.3989V48.467H85.2433V44.7549C85.2433 44.0515 85.0903 43.5641 84.7841 43.2929C84.4865 43.0133 84.1167 42.8734 83.6745 42.8734C83.3684 42.8734 83.0623 42.9455 82.7562 43.0895C82.4501 43.2336 82.195 43.4709 81.9909 43.8014C81.7953 44.1235 81.6976 44.5557 81.6976 45.0981V48.467H80.6772Z" fill="var(--fill-0, #171717)"/>
<path d="M88.8929 48.467V42.1107H89.7857L89.875 43.5345L89.7092 43.3946C89.8452 43.0556 90.028 42.7844 90.2576 42.581C90.4872 42.3692 90.7508 42.2166 91.0484 42.1234C91.3545 42.0302 91.6691 41.9835 91.9922 41.9835C92.4514 41.9835 92.8681 42.0725 93.2422 42.2505C93.6163 42.42 93.9139 42.6827 94.135 43.0387C94.3646 43.3946 94.4794 43.8481 94.4794 44.3989V48.467H93.459V44.7549C93.459 44.0515 93.306 43.5641 92.9998 43.2929C92.7022 43.0133 92.3324 42.8734 91.8902 42.8734C91.5841 42.8734 91.278 42.9455 90.9719 43.0895C90.6658 43.2336 90.4107 43.4667 90.2066 43.7887C90.011 44.1108 89.9133 44.543 89.9133 45.0854V48.467H88.8929Z" fill="var(--fill-0, #171717)"/>
<path d="M99.7488 41.9835C100.352 41.9835 100.884 42.1149 101.343 42.3776C101.811 42.6404 102.176 43.0217 102.44 43.5218C102.704 44.0133 102.835 44.6023 102.835 45.2888C102.835 45.9753 102.704 46.5685 102.44 47.0686C102.176 47.5601 101.811 47.9373 101.343 48.2C100.884 48.4627 100.352 48.5941 99.7488 48.5941C99.1536 48.5941 98.6221 48.4627 98.1545 48.2C97.6868 47.9373 97.3212 47.5601 97.0576 47.0686C96.794 46.5685 96.6622 45.9753 96.6622 45.2888C96.6622 44.6023 96.794 44.0133 97.0576 43.5218C97.3212 43.0217 97.6868 42.6404 98.1545 42.3776C98.6221 42.1149 99.1536 41.9835 99.7488 41.9835ZM99.7488 42.8607C99.3151 42.8607 98.9452 42.9582 98.6391 43.1531C98.333 43.348 98.0949 43.6277 97.9249 43.9921C97.7633 44.3481 97.6825 44.7803 97.6825 45.2888C97.6825 45.7888 97.7633 46.2211 97.9249 46.5855C98.0949 46.9499 98.333 47.2296 98.6391 47.4245C98.9452 47.6195 99.3151 47.7169 99.7488 47.7169C100.182 47.7169 100.552 47.6195 100.858 47.4245C101.165 47.2296 101.398 46.9499 101.56 46.5855C101.73 46.2211 101.815 45.7888 101.815 45.2888C101.815 44.7803 101.73 44.3481 101.56 43.9921C101.398 43.6277 101.165 43.348 100.858 43.1531C100.552 42.9582 100.182 42.8607 99.7488 42.8607Z" fill="var(--fill-0, #171717)"/>
<path d="M106.045 39.1868V46.8525C106.045 47.1745 106.104 47.3991 106.223 47.5262C106.342 47.6449 106.533 47.7042 106.797 47.7042C106.967 47.7042 107.107 47.6915 107.218 47.6661C107.328 47.6406 107.477 47.594 107.664 47.5262L107.499 48.4161C107.362 48.4754 107.214 48.5178 107.052 48.5432C106.891 48.5771 106.725 48.5941 106.555 48.5941C106.036 48.5941 105.649 48.4543 105.394 48.1746C105.147 47.8949 105.024 47.4669 105.024 46.8906V39.1868H106.045Z" fill="var(--fill-0, #171717)"/>
<path d="M111.933 41.9835C112.537 41.9835 113.068 42.1149 113.527 42.3776C113.995 42.6404 114.36 43.0217 114.624 43.5218C114.888 44.0133 115.019 44.6023 115.019 45.2888C115.019 45.9753 114.888 46.5685 114.624 47.0686C114.36 47.5601 113.995 47.9373 113.527 48.2C113.068 48.4627 112.537 48.5941 111.933 48.5941C111.338 48.5941 110.806 48.4627 110.339 48.2C109.871 47.9373 109.505 47.5601 109.242 47.0686C108.978 46.5685 108.846 45.9753 108.846 45.2888C108.846 44.6023 108.978 44.0133 109.242 43.5218C109.505 43.0217 109.871 42.6404 110.339 42.3776C110.806 42.1149 111.338 41.9835 111.933 41.9835ZM111.933 42.8607C111.499 42.8607 111.129 42.9582 110.823 43.1531C110.517 43.348 110.279 43.6277 110.109 43.9921C109.947 44.3481 109.867 44.7803 109.867 45.2888C109.867 45.7888 109.947 46.2211 110.109 46.5855C110.279 46.9499 110.517 47.2296 110.823 47.4245C111.129 47.6195 111.499 47.7169 111.933 47.7169C112.366 47.7169 112.736 47.6195 113.042 47.4245C113.349 47.2296 113.582 46.9499 113.744 46.5855C113.914 46.2211 113.999 45.7888 113.999 45.2888C113.999 44.7803 113.914 44.3481 113.744 43.9921C113.582 43.6277 113.349 43.348 113.042 43.1531C112.736 42.9582 112.366 42.8607 111.933 42.8607Z" fill="var(--fill-0, #171717)"/>
<path d="M122.629 40.9411L122.858 41.8437C122.85 41.8437 122.837 41.8437 122.82 41.8437C122.803 41.8437 122.786 41.8437 122.769 41.8437C122.353 41.8437 122.029 41.9285 121.8 42.098C121.579 42.259 121.468 42.5217 121.468 42.8861L120.843 42.5683C120.843 42.2378 120.92 41.9496 121.073 41.7039C121.226 41.4581 121.434 41.2716 121.698 41.1445C121.961 41.0089 122.251 40.9411 122.565 40.9411C122.574 40.9411 122.582 40.9411 122.591 40.9411C122.608 40.9411 122.62 40.9411 122.629 40.9411ZM120.69 47.6534C121.294 47.6534 121.766 47.7932 122.106 48.0729C122.446 48.3441 122.616 48.7085 122.616 49.1662C122.616 49.5814 122.476 49.9416 122.195 50.2467C121.923 50.5518 121.553 50.7849 121.086 50.9459C120.626 51.1154 120.108 51.2002 119.53 51.2002C118.526 51.2002 117.774 51.0307 117.272 50.6917C116.779 50.3527 116.532 49.9459 116.532 49.4713C116.532 49.1323 116.643 48.8272 116.864 48.556C117.093 48.2932 117.476 48.1449 118.012 48.111L117.922 48.3017C117.633 48.2254 117.387 48.0983 117.183 47.9203C116.987 47.7339 116.889 47.4669 116.889 47.1194C116.889 46.772 117.017 46.4753 117.272 46.2295C117.536 45.9753 117.922 45.8185 118.433 45.7592L119.109 46.1024H118.981C118.564 46.1448 118.267 46.2507 118.088 46.4202C117.918 46.5813 117.833 46.7592 117.833 46.9542C117.833 47.1915 117.918 47.3694 118.088 47.4881C118.267 47.5983 118.513 47.6534 118.828 47.6534H120.69ZM119.517 50.3484C120.01 50.3484 120.414 50.2976 120.728 50.1959C121.052 50.0942 121.29 49.9628 121.443 49.8018C121.596 49.6408 121.672 49.467 121.672 49.2806C121.672 49.0517 121.579 48.8695 121.392 48.7339C121.213 48.5983 120.886 48.5305 120.41 48.5305H118.445C118.173 48.5305 117.944 48.5983 117.757 48.7339C117.57 48.878 117.476 49.0729 117.476 49.3187C117.476 49.6323 117.655 49.8823 118.012 50.0688C118.377 50.2552 118.879 50.3484 119.517 50.3484ZM119.428 41.9835C119.938 41.9835 120.388 42.0768 120.779 42.2632C121.179 42.4412 121.489 42.6912 121.711 43.0133C121.932 43.3353 122.042 43.7082 122.042 44.132C122.042 44.5472 121.932 44.9201 121.711 45.2507C121.489 45.5727 121.179 45.827 120.779 46.0134C120.388 46.1914 119.938 46.2804 119.428 46.2804C118.586 46.2804 117.939 46.0812 117.489 45.6829C117.038 45.2761 116.813 44.7591 116.813 44.132C116.813 43.7082 116.923 43.3353 117.144 43.0133C117.374 42.6912 117.684 42.4412 118.076 42.2632C118.467 42.0768 118.917 41.9835 119.428 41.9835ZM119.428 42.8099C118.985 42.8099 118.615 42.9327 118.318 43.1785C118.02 43.4158 117.871 43.7336 117.871 44.132C117.871 44.5218 118.02 44.8396 118.318 45.0854C118.615 45.3312 118.985 45.4541 119.428 45.4541C119.87 45.4541 120.24 45.3312 120.537 45.0854C120.835 44.8396 120.984 44.5218 120.984 44.132C120.984 43.7336 120.835 43.4158 120.537 43.1785C120.24 42.9327 119.87 42.8099 119.428 42.8099Z" fill="var(--fill-0, #171717)"/>
<path d="M129.608 42.1107L126.611 49.5348C126.45 49.9501 126.271 50.2764 126.075 50.5137C125.888 50.7595 125.676 50.9332 125.438 51.0349C125.208 51.1451 124.94 51.2002 124.634 51.2002C124.345 51.2002 124.077 51.1578 123.831 51.073C123.593 50.9968 123.38 50.8908 123.193 50.7552L123.474 49.8653C123.644 50.0179 123.822 50.1281 124.009 50.1959C124.205 50.2722 124.396 50.3103 124.583 50.3103C124.804 50.3103 125.013 50.2425 125.208 50.1069C125.404 49.9713 125.582 49.6958 125.744 49.2806L126.075 48.4543L125.438 46.9415L123.41 42.1107H124.57L126.165 46.255L126.56 47.3864L127.019 46.1278L128.512 42.1107H129.608Z" fill="var(--fill-0, #171717)"/>
<path d="M140.973 40.9411L141.203 41.8437C141.195 41.8437 141.182 41.8437 141.165 41.8437C141.148 41.8437 141.131 41.8437 141.114 41.8437C140.697 41.8437 140.374 41.9285 140.144 42.098C139.923 42.259 139.813 42.5217 139.813 42.8861L139.188 42.5683C139.188 42.2378 139.264 41.9496 139.417 41.7039C139.57 41.4581 139.779 41.2716 140.042 41.1445C140.306 41.0089 140.595 40.9411 140.91 40.9411C140.918 40.9411 140.927 40.9411 140.935 40.9411C140.952 40.9411 140.965 40.9411 140.973 40.9411ZM139.035 47.6534C139.638 47.6534 140.11 47.7932 140.451 48.0729C140.791 48.3441 140.961 48.7085 140.961 49.1662C140.961 49.5814 140.82 49.9416 140.54 50.2467C140.268 50.5518 139.898 50.7849 139.43 50.9459C138.971 51.1154 138.452 51.2002 137.874 51.2002C136.871 51.2002 136.118 51.0307 135.617 50.6917C135.123 50.3527 134.877 49.9459 134.877 49.4713C134.877 49.1323 134.987 48.8272 135.208 48.556C135.438 48.2932 135.821 48.1449 136.356 48.111L136.267 48.3017C135.978 48.2254 135.731 48.0983 135.527 47.9203C135.332 47.7339 135.234 47.4669 135.234 47.1194C135.234 46.772 135.361 46.4753 135.617 46.2295C135.88 45.9753 136.267 45.8185 136.777 45.7592L137.453 46.1024H137.326C136.909 46.1448 136.611 46.2507 136.433 46.4202C136.263 46.5813 136.178 46.7592 136.178 46.9542C136.178 47.1915 136.263 47.3694 136.433 47.4881C136.611 47.5983 136.858 47.6534 137.173 47.6534H139.035ZM137.861 50.3484C138.355 50.3484 138.758 50.2976 139.073 50.1959C139.396 50.0942 139.634 49.9628 139.787 49.8018C139.94 49.6408 140.017 49.467 140.017 49.2806C140.017 49.0517 139.923 48.8695 139.736 48.7339C139.558 48.5983 139.23 48.5305 138.754 48.5305H136.79C136.518 48.5305 136.288 48.5983 136.101 48.7339C135.914 48.878 135.821 49.0729 135.821 49.3187C135.821 49.6323 135.999 49.8823 136.356 50.0688C136.722 50.2552 137.224 50.3484 137.861 50.3484ZM137.772 41.9835C138.282 41.9835 138.733 42.0768 139.124 42.2632C139.524 42.4412 139.834 42.6912 140.055 43.0133C140.276 43.3353 140.387 43.7082 140.387 44.132C140.387 44.5472 140.276 44.9201 140.055 45.2507C139.834 45.5727 139.524 45.827 139.124 46.0134C138.733 46.1914 138.282 46.2804 137.772 46.2804C136.93 46.2804 136.284 46.0812 135.833 45.6829C135.383 45.2761 135.157 44.7591 135.157 44.132C135.157 43.7082 135.268 43.3353 135.489 43.0133C135.719 42.6912 136.029 42.4412 136.42 42.2632C136.811 42.0768 137.262 41.9835 137.772 41.9835ZM137.772 42.8099C137.33 42.8099 136.96 42.9327 136.662 43.1785C136.365 43.4158 136.216 43.7336 136.216 44.132C136.216 44.5218 136.365 44.8396 136.662 45.0854C136.96 45.3312 137.33 45.4541 137.772 45.4541C138.214 45.4541 138.584 45.3312 138.882 45.0854C139.179 44.8396 139.328 44.5218 139.328 44.132C139.328 43.7336 139.179 43.4158 138.882 43.1785C138.584 42.9327 138.214 42.8099 137.772 42.8099Z" fill="var(--fill-0, #171717)"/>
<path d="M142.711 48.467V42.1107H143.54L143.68 43.1531C143.859 42.7632 144.118 42.4709 144.458 42.2759C144.807 42.081 145.228 41.9835 145.721 41.9835C145.832 41.9835 145.951 41.992 146.078 42.009C146.214 42.0259 146.329 42.0598 146.423 42.1107L146.244 43.0387C146.15 43.0048 146.048 42.9794 145.938 42.9624C145.827 42.9455 145.67 42.937 145.466 42.937C145.202 42.937 144.935 43.0133 144.662 43.1658C144.399 43.3184 144.178 43.5514 143.999 43.865C143.821 44.1701 143.731 44.56 143.731 45.0346V48.467H142.711Z" fill="var(--fill-0, #171717)"/>
<path d="M150.677 41.9835C151.281 41.9835 151.812 42.1149 152.271 42.3776C152.739 42.6404 153.105 43.0217 153.368 43.5218C153.632 44.0133 153.764 44.6023 153.764 45.2888C153.764 45.9753 153.632 46.5685 153.368 47.0686C153.105 47.5601 152.739 47.9373 152.271 48.2C151.812 48.4627 151.281 48.5941 150.677 48.5941C150.082 48.5941 149.551 48.4627 149.083 48.2C148.615 47.9373 148.25 47.5601 147.986 47.0686C147.722 46.5685 147.591 45.9753 147.591 45.2888C147.591 44.6023 147.722 44.0133 147.986 43.5218C148.25 43.0217 148.615 42.6404 149.083 42.3776C149.551 42.1149 150.082 41.9835 150.677 41.9835ZM150.677 42.8607C150.244 42.8607 149.874 42.9582 149.568 43.1531C149.261 43.348 149.023 43.6277 148.853 43.9921C148.692 44.3481 148.611 44.7803 148.611 45.2888C148.611 45.7888 148.692 46.2211 148.853 46.5855C149.023 46.9499 149.261 47.2296 149.568 47.4245C149.874 47.6195 150.244 47.7169 150.677 47.7169C151.111 47.7169 151.481 47.6195 151.787 47.4245C152.093 47.2296 152.327 46.9499 152.488 46.5855C152.658 46.2211 152.743 45.7888 152.743 45.2888C152.743 44.7803 152.658 44.3481 152.488 43.9921C152.327 43.6277 152.093 43.348 151.787 43.1531C151.481 42.9582 151.111 42.8607 150.677 42.8607Z" fill="var(--fill-0, #171717)"/>
<path d="M158.312 48.5941C157.904 48.5941 157.517 48.5178 157.151 48.3653C156.794 48.2127 156.501 47.9669 156.271 47.6279C156.05 47.2805 155.94 46.8313 155.94 46.2804V42.1107H156.96V46.0134C156.96 46.6575 157.1 47.1025 157.381 47.3483C157.662 47.5856 158.057 47.7042 158.567 47.7042C158.805 47.7042 159.039 47.6661 159.269 47.5898C159.498 47.505 159.702 47.3779 159.881 47.2084C160.068 47.0304 160.213 46.8059 160.315 46.5346C160.425 46.2634 160.48 45.9414 160.48 45.5685V42.1107H161.501V48.467H160.608L160.544 47.5008C160.323 47.8822 160.021 48.1619 159.639 48.3398C159.264 48.5093 158.822 48.5941 158.312 48.5941Z" fill="var(--fill-0, #171717)"/>
<path d="M164.194 51.1366V42.1107H165.087L165.176 43.6616L165.036 43.4836C165.147 43.187 165.313 42.9285 165.534 42.7082C165.755 42.4793 166.023 42.3014 166.337 42.1742C166.652 42.0471 166.992 41.9835 167.357 41.9835C167.876 41.9835 168.352 42.1149 168.786 42.3776C169.228 42.6404 169.581 43.0175 169.845 43.5091C170.108 44.0006 170.24 44.5939 170.24 45.2888C170.24 45.9753 170.104 46.5685 169.832 47.0686C169.568 47.5601 169.215 47.9373 168.773 48.2C168.331 48.4627 167.846 48.5941 167.319 48.5941C166.792 48.5941 166.329 48.467 165.929 48.2127C165.538 47.95 165.257 47.6195 165.087 47.2211L165.215 47.0304V51.1366H164.194ZM167.217 47.7042C167.846 47.7042 168.335 47.4839 168.684 47.0432C169.041 46.6024 169.22 46.0177 169.22 45.2888C169.22 44.56 169.045 43.9752 168.697 43.5345C168.357 43.0938 167.876 42.8734 167.255 42.8734C166.847 42.8734 166.49 42.9751 166.184 43.1785C165.878 43.3734 165.64 43.6531 165.47 44.0176C165.3 44.3735 165.215 44.7973 165.215 45.2888C165.215 45.7719 165.295 46.1956 165.457 46.5601C165.627 46.9245 165.861 47.2084 166.159 47.4118C166.465 47.6067 166.818 47.7042 167.217 47.7042Z" fill="var(--fill-0, #171717)"/>
</g>
</g>
</svg>
