<svg width="247" height="75" viewBox="0 0 247 75" fill="none" xmlns="http://www.w3.org/2000/svg">
<path d="M18.642 3.5484C22.4826 3.5484 25.8054 4.27959 28.6103 5.74196C31.4152 7.16132 33.7886 9.26886 35.7305 12.0646L31.07 16.5162C29.4302 14.0216 27.5746 12.2366 25.5033 11.1613C23.4751 10.0431 21.0586 9.48392 18.2536 9.48392C16.1823 9.48392 14.4778 9.76349 13.14 10.3226C11.8023 10.8818 10.8098 11.6345 10.1625 12.5807C9.55834 13.4839 9.25627 14.5162 9.25627 15.6775C9.25627 17.0108 9.70938 18.1721 10.6156 19.1614C11.5649 20.1506 13.3126 20.9248 15.8586 21.484L24.5324 23.4195C28.675 24.3227 31.6094 25.699 33.3355 27.5485C35.0616 29.398 35.9247 31.7421 35.9247 34.5808C35.9247 37.2045 35.2127 39.4841 33.7886 41.4195C32.3646 43.355 30.3796 44.8389 27.8335 45.8712C25.3307 46.9034 22.3747 47.4196 18.9656 47.4196C15.945 47.4196 13.2263 47.0325 10.8098 46.2583C8.39322 45.4841 6.27873 44.4303 4.46631 43.097C2.6539 41.7636 1.16513 40.2367 0 38.5163L4.78996 33.7421C5.69617 35.2475 6.83972 36.6023 8.2206 37.8066C9.60149 38.9679 11.1981 39.8712 13.0106 40.5163C14.8661 41.1615 16.9159 41.4841 19.1598 41.4841C21.1449 41.4841 22.8494 41.2475 24.2734 40.7744C25.7406 40.3013 26.841 39.6131 27.5746 38.7099C28.3514 37.7636 28.7397 36.6453 28.7397 35.355C28.7397 34.1077 28.3082 33.0109 27.4452 32.0647C26.6253 31.1184 25.0718 30.3872 22.7847 29.8711L13.3989 27.7421C10.8098 27.1829 8.67371 26.3872 6.99075 25.355C5.30779 24.3227 4.05636 23.0754 3.23646 21.613C2.41656 20.1076 2.0066 18.4302 2.0066 16.5807C2.0066 14.1721 2.6539 12.0001 3.94848 10.0646C5.28622 8.08606 7.20651 6.51616 9.70937 5.35486C12.2122 4.15056 15.1898 3.5484 18.642 3.5484Z" fill="white"/>
<path d="M71.2004 14.5162L57.0247 50.5809C56.0754 53.0755 55.0397 55.054 53.9177 56.5164C52.8389 57.9788 51.5875 59.0325 50.1634 59.6777C48.7394 60.3229 47.078 60.6454 45.1793 60.6454C43.6258 60.6454 42.1802 60.4304 40.8424 60.0003C39.5479 59.6132 38.4043 59.0755 37.4118 58.3874L39.0948 53.0325C39.9147 53.7207 40.7777 54.2368 41.6839 54.5809C42.6333 54.925 43.6474 55.097 44.7262 55.097C45.8913 55.097 46.927 54.7744 47.8332 54.1293C48.7826 53.5271 49.624 52.3013 50.3576 50.4518L51.7817 46.968L48.351 38.9679L38.2533 14.5162H46.0208L53.2057 34.7744L55.0829 40.8389L57.2189 34.1937L64.0155 14.5162H71.2004Z" fill="white"/>
<path d="M76.6461 46.7744V14.5162H82.7954L83.119 19.9356C84.241 17.871 85.7298 16.3442 87.5854 15.3549C89.4841 14.3657 91.4907 13.871 93.6052 13.871C95.9354 13.871 98.0715 14.4087 100.013 15.4839C101.998 16.5162 103.487 18.0861 104.48 20.1936C105.17 18.7743 106.119 17.5915 107.328 16.6452C108.536 15.699 109.874 15.0108 111.341 14.5807C112.808 14.1076 114.254 13.871 115.678 13.871C117.749 13.871 119.691 14.3011 121.503 15.1614C123.316 16.0216 124.783 17.3334 125.905 19.0969C127.027 20.8603 127.588 23.1184 127.588 25.8711V46.7744H120.662V26.9679C120.662 24.3442 120.036 22.4517 118.785 21.2904C117.533 20.1291 115.937 19.5485 113.995 19.5485C112.484 19.5485 111.082 19.9141 109.787 20.6453C108.536 21.3764 107.522 22.4732 106.745 23.9356C105.968 25.355 105.58 27.1184 105.58 29.2259V46.7744H98.654V26.9679C98.654 24.3442 98.0283 22.4517 96.7769 21.2904C95.5255 20.1291 93.9288 19.5485 91.9869 19.5485C90.6924 19.5485 89.3978 19.8926 88.1032 20.5807C86.8086 21.2689 85.7298 22.3442 84.8667 23.8066C84.0037 25.2689 83.5721 27.2044 83.5721 29.613V46.7744H76.6461Z" fill="white"/>
<path d="M151.672 13.871C154.822 13.871 157.606 14.5377 160.022 15.871C162.439 17.2044 164.316 19.1399 165.654 21.6775C167.035 24.1722 167.725 27.1614 167.725 30.6453C167.725 34.1292 167.035 37.14 165.654 39.6776C164.316 42.1722 162.439 44.0862 160.022 45.4196C157.606 46.7529 154.822 47.4196 151.672 47.4196C148.522 47.4196 145.739 46.7529 143.322 45.4196C140.906 44.0862 139.007 42.1722 137.626 39.6776C136.245 37.14 135.555 34.1292 135.555 30.6453C135.555 27.1614 136.245 24.1722 137.626 21.6775C139.007 19.1399 140.906 17.2044 143.322 15.871C145.739 14.5377 148.522 13.871 151.672 13.871ZM151.672 19.2904C149.73 19.2904 148.069 19.742 146.688 20.6453C145.35 21.5055 144.315 22.7743 143.581 24.4517C142.847 26.1292 142.481 28.1937 142.481 30.6453C142.481 33.0539 142.847 35.1184 143.581 36.8389C144.315 38.5163 145.35 39.8066 146.688 40.7099C148.069 41.5701 149.73 42.0002 151.672 42.0002C153.614 42.0002 155.254 41.5701 156.592 40.7099C157.929 39.8066 158.965 38.5163 159.699 36.8389C160.432 35.1184 160.799 33.0539 160.799 30.6453C160.799 28.1937 160.432 26.1292 159.699 24.4517C158.965 22.7743 157.929 21.5055 156.592 20.6453C155.254 19.742 153.614 19.2904 151.672 19.2904Z" fill="white"/>
<path d="M188.404 47.4196C185.728 47.4196 183.29 46.7529 181.089 45.4196C178.932 44.0862 177.227 42.1722 175.976 39.6776C174.724 37.183 174.099 34.1937 174.099 30.7098C174.099 27.0969 174.767 24.0431 176.105 21.5485C177.443 19.0539 179.234 17.1614 181.478 15.871C183.722 14.5377 186.181 13.871 188.857 13.871C191.619 13.871 193.949 14.6237 195.848 16.1291C197.746 17.6345 199.019 19.5915 199.667 22.0001L198.89 22.7098V0H205.816V46.7744H199.667L199.149 38.0002L200.055 38.0647C199.753 40.0002 199.041 41.6776 197.919 43.097C196.797 44.4733 195.395 45.5486 193.712 46.3228C192.072 47.054 190.302 47.4196 188.404 47.4196ZM189.893 41.8712C191.748 41.8712 193.345 41.398 194.682 40.4518C196.02 39.5056 197.056 38.1722 197.789 36.4518C198.523 34.7313 198.89 32.6668 198.89 30.2582C198.89 28.0216 198.523 26.1076 197.789 24.5162C197.056 22.8818 196.02 21.6345 194.682 20.7743C193.388 19.9141 191.878 19.484 190.151 19.484C187.26 19.484 185.016 20.4732 183.42 22.4517C181.823 24.4302 181.025 27.1614 181.025 30.6453C181.025 34.1292 181.801 36.8819 183.355 38.9034C184.908 40.8819 187.088 41.8712 189.893 41.8712Z" fill="white"/>
<path d="M234.802 26.0646C234.802 23.9141 234.198 22.2582 232.99 21.0969C231.825 19.8926 230.207 19.2904 228.135 19.2904C226.193 19.2904 224.532 19.742 223.151 20.6453C221.77 21.5485 220.756 23.0109 220.109 25.0324L214.283 22.5807C215.103 19.9571 216.7 17.8495 219.073 16.2581C221.49 14.6667 224.597 13.871 228.394 13.871C230.983 13.871 233.27 14.3011 235.255 15.1614C237.24 15.9786 238.794 17.2259 239.916 18.9033C241.081 20.5807 241.664 22.7313 241.664 25.355V39.7421C241.664 41.3335 242.462 42.1292 244.059 42.1292C244.835 42.1292 245.59 42.0217 246.324 41.8066L245.936 46.5809C244.943 47.054 243.692 47.2905 242.181 47.2905C240.801 47.2905 239.549 47.054 238.427 46.5809C237.348 46.0647 236.485 45.312 235.838 44.3228C235.234 43.2905 234.932 42.0217 234.932 40.5163V40.0647L236.356 40.0002C235.967 41.6776 235.169 43.0755 233.961 44.1938C232.753 45.269 231.35 46.0862 229.753 46.6454C228.157 47.1615 226.539 47.4196 224.899 47.4196C222.871 47.4196 221.037 47.097 219.397 46.4518C217.8 45.8067 216.527 44.8389 215.578 43.5486C214.672 42.2152 214.218 40.5808 214.218 38.6453C214.218 36.2367 214.995 34.2582 216.549 32.7098C218.145 31.1614 220.389 30.1077 223.281 29.5485L235.838 27.0969L235.773 31.9356L226.646 33.8066C224.834 34.1507 223.475 34.6453 222.568 35.2905C221.662 35.9356 221.209 36.8819 221.209 38.1292C221.209 39.3335 221.662 40.3013 222.568 41.0324C223.518 41.7206 224.769 42.0647 226.323 42.0647C227.402 42.0647 228.437 41.9357 229.43 41.6776C230.465 41.4195 231.393 41.0109 232.213 40.4518C233.033 39.8496 233.659 39.097 234.09 38.1937C234.565 37.2475 234.802 36.1292 234.802 34.8389V26.0646Z" fill="white"/>
<path d="M94.3103 58.1106V59.4931H90.0566V70.2766H88.5771V59.4931H84.3235V58.1106H94.3103Z" fill="white"/>
<path d="M98.8998 70.4609C98.0244 70.4609 97.2415 70.2705 96.5511 69.8895C95.873 69.5085 95.3428 68.9617 94.9606 68.2489C94.5784 67.5239 94.3873 66.6637 94.3873 65.6683C94.3873 64.6729 94.5784 63.8188 94.9606 63.1061C95.3428 62.381 95.8668 61.828 96.5326 61.4471C97.1984 61.0661 97.9566 60.8756 98.8074 60.8756C99.6704 60.8756 100.404 61.06 101.008 61.4286C101.625 61.7973 102.093 62.3011 102.414 62.9402C102.734 63.5669 102.895 64.2735 102.895 65.06C102.895 65.2689 102.888 65.4594 102.876 65.6314C102.864 65.8035 102.845 65.9571 102.821 66.0922H95.349V64.7835H102.173L101.415 64.9309C101.415 64.0462 101.168 63.3641 100.675 62.8849C100.194 62.4056 99.5595 62.166 98.7704 62.166C98.1662 62.166 97.6422 62.3073 97.1984 62.5899C96.7668 62.8603 96.4278 63.2597 96.1812 63.7881C95.9469 64.3042 95.8298 64.931 95.8298 65.6683C95.8298 66.3933 95.9531 67.0201 96.1997 67.5485C96.4463 68.0769 96.7915 68.4824 97.2354 68.7651C97.6916 69.0354 98.234 69.1706 98.8628 69.1706C99.541 69.1706 100.09 69.0416 100.509 68.7835C100.94 68.5254 101.286 68.1752 101.544 67.7328L102.71 68.4148C102.475 68.8327 102.173 69.1952 101.803 69.5024C101.446 69.8096 101.02 70.0493 100.527 70.2213C100.046 70.3811 99.504 70.4609 98.8998 70.4609Z" fill="white"/>
<path d="M109.999 60.8756C110.64 60.8756 111.201 60.9739 111.682 61.1706C112.175 61.3672 112.6 61.6498 112.958 62.0185C113.316 62.3872 113.605 62.8234 113.827 63.3273L112.422 63.9909C112.224 63.401 111.922 62.9524 111.516 62.6452C111.121 62.3257 110.603 62.166 109.962 62.166C109.346 62.166 108.815 62.3073 108.372 62.5899C107.928 62.8603 107.589 63.2597 107.354 63.7881C107.12 64.3042 107.003 64.931 107.003 65.6683C107.003 66.3933 107.12 67.0201 107.354 67.5485C107.589 68.0769 107.928 68.4824 108.372 68.7651C108.815 69.0354 109.346 69.1706 109.962 69.1706C110.443 69.1706 110.856 69.0969 111.201 68.9494C111.559 68.8019 111.848 68.5869 112.07 68.3042C112.305 68.0216 112.465 67.6775 112.551 67.272L113.92 67.7512C113.71 68.3165 113.42 68.8019 113.051 69.2075C112.693 69.613 112.255 69.9264 111.737 70.1476C111.232 70.3565 110.652 70.4609 109.999 70.4609C109.136 70.4609 108.365 70.2705 107.687 69.8895C107.009 69.5085 106.479 68.9617 106.097 68.2489C105.715 67.5239 105.523 66.6637 105.523 65.6683C105.523 64.6729 105.715 63.8188 106.097 63.1061C106.479 62.381 107.009 61.828 107.687 61.4471C108.365 61.0661 109.136 60.8756 109.999 60.8756Z" fill="white"/>
<path d="M116.982 70.2766V56.8203H118.461V62.4425C118.782 61.8895 119.207 61.4901 119.737 61.2443C120.268 60.9985 120.847 60.8756 121.476 60.8756C122.142 60.8756 122.746 61.0047 123.288 61.2627C123.831 61.5085 124.262 61.8895 124.583 62.4056C124.916 62.9217 125.082 63.5792 125.082 64.378V70.2766H123.603V64.8941C123.603 63.8741 123.381 63.1675 122.937 62.7743C122.505 62.3687 121.969 62.166 121.328 62.166C120.884 62.166 120.44 62.2704 119.996 62.4793C119.552 62.6882 119.183 63.0323 118.887 63.5116C118.603 63.9786 118.461 64.6053 118.461 65.3918V70.2766H116.982Z" fill="white"/>
<path d="M128.895 70.2766V61.06H130.189L130.319 63.1245L130.078 62.9217C130.275 62.4302 130.541 62.0369 130.873 61.742C131.206 61.4348 131.589 61.2136 132.02 61.0784C132.464 60.9432 132.92 60.8756 133.389 60.8756C134.054 60.8756 134.659 61.0047 135.201 61.2627C135.744 61.5085 136.175 61.8895 136.496 62.4056C136.829 62.9217 136.995 63.5792 136.995 64.378V70.2766H135.515V64.8941C135.515 63.8741 135.294 63.1675 134.85 62.7743C134.418 62.3687 133.882 62.166 133.241 62.166C132.797 62.166 132.353 62.2704 131.909 62.4793C131.465 62.6882 131.095 63.0262 130.799 63.4932C130.516 63.9601 130.374 64.5869 130.374 65.3733V70.2766H128.895Z" fill="white"/>
<path d="M144.636 60.8756C145.511 60.8756 146.282 61.0661 146.947 61.4471C147.625 61.828 148.156 62.381 148.538 63.1061C148.92 63.8188 149.111 64.6729 149.111 65.6683C149.111 66.6637 148.92 67.5239 148.538 68.2489C148.156 68.9617 147.625 69.5085 146.947 69.8895C146.282 70.2705 145.511 70.4609 144.636 70.4609C143.773 70.4609 143.002 70.2705 142.324 69.8895C141.646 69.5085 141.116 68.9617 140.733 68.2489C140.351 67.5239 140.16 66.6637 140.16 65.6683C140.16 64.6729 140.351 63.8188 140.733 63.1061C141.116 62.381 141.646 61.828 142.324 61.4471C143.002 61.0661 143.773 60.8756 144.636 60.8756ZM144.636 62.1475C144.007 62.1475 143.47 62.2888 143.027 62.5715C142.583 62.8541 142.238 63.2597 141.991 63.7881C141.757 64.3042 141.64 64.931 141.64 65.6683C141.64 66.3933 141.757 67.0201 141.991 67.5485C142.238 68.0769 142.583 68.4824 143.027 68.7651C143.47 69.0477 144.007 69.189 144.636 69.189C145.264 69.189 145.801 69.0477 146.245 68.7651C146.688 68.4824 147.028 68.0769 147.262 67.5485C147.508 67.0201 147.632 66.3933 147.632 65.6683C147.632 64.931 147.508 64.3042 147.262 63.7881C147.028 63.2597 146.688 62.8541 146.245 62.5715C145.801 62.2888 145.264 62.1475 144.636 62.1475Z" fill="white"/>
<path d="M153.764 56.8203V67.9356C153.764 68.4025 153.851 68.7282 154.023 68.9125C154.196 69.0846 154.473 69.1706 154.856 69.1706C155.102 69.1706 155.306 69.1522 155.466 69.1153C155.626 69.0784 155.842 69.0108 156.113 68.9125L155.873 70.2029C155.675 70.2889 155.46 70.3503 155.225 70.3872C154.991 70.4364 154.751 70.4609 154.504 70.4609C153.752 70.4609 153.191 70.2582 152.821 69.8526C152.464 69.4471 152.285 68.8265 152.285 67.9909V56.8203H153.764Z" fill="white"/>
<path d="M162.302 60.8756C163.178 60.8756 163.948 61.0661 164.614 61.4471C165.292 61.828 165.823 62.381 166.205 63.1061C166.587 63.8188 166.778 64.6729 166.778 65.6683C166.778 66.6637 166.587 67.5239 166.205 68.2489C165.823 68.9617 165.292 69.5085 164.614 69.8895C163.948 70.2705 163.178 70.4609 162.302 70.4609C161.439 70.4609 160.669 70.2705 159.991 69.8895C159.313 69.5085 158.782 68.9617 158.4 68.2489C158.018 67.5239 157.827 66.6637 157.827 65.6683C157.827 64.6729 158.018 63.8188 158.4 63.1061C158.782 62.381 159.313 61.828 159.991 61.4471C160.669 61.0661 161.439 60.8756 162.302 60.8756ZM162.302 62.1475C161.674 62.1475 161.137 62.2888 160.693 62.5715C160.25 62.8541 159.904 63.2597 159.658 63.7881C159.424 64.3042 159.306 64.931 159.306 65.6683C159.306 66.3933 159.424 67.0201 159.658 67.5485C159.904 68.0769 160.25 68.4824 160.693 68.7651C161.137 69.0477 161.674 69.189 162.302 69.189C162.931 69.189 163.468 69.0477 163.911 68.7651C164.355 68.4824 164.694 68.0769 164.929 67.5485C165.175 67.0201 165.299 66.3933 165.299 65.6683C165.299 64.931 165.175 64.3042 164.929 63.7881C164.694 63.2597 164.355 62.8541 163.911 62.5715C163.468 62.2888 162.931 62.1475 162.302 62.1475Z" fill="white"/>
<path d="M177.812 59.3641L178.145 60.6729C178.132 60.6729 178.114 60.6729 178.089 60.6729C178.065 60.6729 178.04 60.6729 178.015 60.6729C177.411 60.6729 176.943 60.7958 176.61 61.0415C176.289 61.275 176.129 61.656 176.129 62.1844L175.223 61.7236C175.223 61.2443 175.334 60.8265 175.555 60.4701C175.777 60.1137 176.079 59.8434 176.462 59.659C176.844 59.4624 177.263 59.3641 177.719 59.3641C177.732 59.3641 177.744 59.3641 177.756 59.3641C177.781 59.3641 177.799 59.3641 177.812 59.3641ZM175.001 69.0969C175.876 69.0969 176.56 69.2996 177.054 69.7052C177.547 70.0984 177.793 70.6268 177.793 71.2904C177.793 71.8926 177.59 72.4149 177.183 72.8573C176.788 73.2997 176.252 73.6376 175.574 73.8711C174.908 74.1169 174.156 74.2397 173.318 74.2397C171.863 74.2397 170.772 73.994 170.044 73.5024C169.329 73.0109 168.972 72.421 168.972 71.7328C168.972 71.2413 169.132 70.7989 169.452 70.4056C169.785 70.0247 170.34 69.8096 171.117 69.7605L170.987 70.037C170.568 69.9264 170.211 69.742 169.915 69.484C169.631 69.2136 169.489 68.8265 169.489 68.3227C169.489 67.8188 169.674 67.3887 170.044 67.0323C170.426 66.6637 170.987 66.4363 171.727 66.3503L172.707 66.848H172.522C171.918 66.9095 171.487 67.0631 171.228 67.3088C170.981 67.5423 170.858 67.8004 170.858 68.083C170.858 68.4271 170.981 68.6852 171.228 68.8572C171.487 69.017 171.844 69.0969 172.301 69.0969H175.001ZM173.299 73.0047C174.014 73.0047 174.6 72.931 175.056 72.7835C175.525 72.6361 175.87 72.4456 176.092 72.2121C176.314 71.9786 176.425 71.7267 176.425 71.4563C176.425 71.1245 176.289 70.8603 176.018 70.6637C175.759 70.4671 175.284 70.3688 174.594 70.3688H171.746C171.351 70.3688 171.018 70.4671 170.747 70.6637C170.476 70.8726 170.34 71.1552 170.34 71.5116C170.34 71.9663 170.599 72.3288 171.117 72.5992C171.647 72.8695 172.375 73.0047 173.299 73.0047ZM173.17 60.8756C173.91 60.8756 174.563 61.0108 175.13 61.2812C175.71 61.5392 176.16 61.9017 176.48 62.3687C176.801 62.8357 176.961 63.3764 176.961 63.9909C176.961 64.593 176.801 65.1337 176.48 65.613C176.16 66.08 175.71 66.4486 175.13 66.719C174.563 66.977 173.91 67.1061 173.17 67.1061C171.949 67.1061 171.012 66.8173 170.359 66.2397C169.705 65.6498 169.378 64.9002 169.378 63.9909C169.378 63.3764 169.539 62.8357 169.859 62.3687C170.192 61.9017 170.642 61.5392 171.209 61.2812C171.777 61.0108 172.43 60.8756 173.17 60.8756ZM173.17 62.0738C172.529 62.0738 171.992 62.252 171.561 62.6084C171.129 62.9524 170.913 63.4133 170.913 63.9909C170.913 64.5561 171.129 65.017 171.561 65.3733C171.992 65.7297 172.529 65.9079 173.17 65.9079C173.811 65.9079 174.347 65.7297 174.779 65.3733C175.21 65.017 175.426 64.5561 175.426 63.9909C175.426 63.4133 175.21 62.9524 174.779 62.6084C174.347 62.252 173.811 62.0738 173.17 62.0738Z" fill="white"/>
<path d="M187.932 61.06L183.586 71.825C183.352 72.4271 183.093 72.9003 182.809 73.2444C182.538 73.6007 182.23 73.8527 181.885 74.0001C181.552 74.1599 181.163 74.2397 180.72 74.2397C180.3 74.2397 179.912 74.1783 179.554 74.0554C179.209 73.9448 178.901 73.7912 178.63 73.5946L179.037 72.3043C179.283 72.5255 179.542 72.6852 179.813 72.7835C180.097 72.8941 180.374 72.9494 180.646 72.9494C180.966 72.9494 181.268 72.8511 181.552 72.6545C181.835 72.4579 182.094 72.0585 182.328 71.4563L182.809 70.2582L181.885 68.0646L178.944 61.06H180.627L182.939 67.0692L183.512 68.7098L184.178 66.8849L186.342 61.06H187.932Z" fill="white"/>
<path d="M204.411 59.3641L204.744 60.6729C204.732 60.6729 204.713 60.6729 204.689 60.6729C204.664 60.6729 204.639 60.6729 204.615 60.6729C204.011 60.6729 203.542 60.7958 203.209 61.0415C202.889 61.275 202.728 61.656 202.728 62.1844L201.822 61.7236C201.822 61.2443 201.933 60.8265 202.155 60.4701C202.377 60.1137 202.679 59.8434 203.061 59.659C203.444 59.4624 203.863 59.3641 204.319 59.3641C204.331 59.3641 204.344 59.3641 204.356 59.3641C204.381 59.3641 204.399 59.3641 204.411 59.3641ZM201.6 69.0969C202.476 69.0969 203.16 69.2996 203.653 69.7052C204.146 70.0984 204.393 70.6268 204.393 71.2904C204.393 71.8926 204.189 72.4149 203.783 72.8573C203.388 73.2997 202.852 73.6376 202.174 73.8711C201.508 74.1169 200.756 74.2397 199.917 74.2397C198.462 74.2397 197.371 73.994 196.644 73.5024C195.929 73.0109 195.571 72.421 195.571 71.7328C195.571 71.2413 195.732 70.7989 196.052 70.4056C196.385 70.0247 196.94 69.8096 197.717 69.7605L197.587 70.037C197.168 69.9264 196.81 69.742 196.514 69.484C196.231 69.2136 196.089 68.8265 196.089 68.3227C196.089 67.8188 196.274 67.3887 196.644 67.0323C197.026 66.6637 197.587 66.4363 198.327 66.3503L199.307 66.848H199.122C198.518 66.9095 198.086 67.0631 197.828 67.3088C197.581 67.5423 197.458 67.8004 197.458 68.083C197.458 68.4271 197.581 68.6852 197.828 68.8572C198.086 69.017 198.444 69.0969 198.9 69.0969H201.6ZM199.899 73.0047C200.614 73.0047 201.2 72.931 201.656 72.7835C202.124 72.6361 202.47 72.4456 202.691 72.2121C202.913 71.9786 203.024 71.7267 203.024 71.4563C203.024 71.1245 202.889 70.8603 202.617 70.6637C202.359 70.4671 201.884 70.3688 201.193 70.3688H198.345C197.951 70.3688 197.618 70.4671 197.347 70.6637C197.075 70.8726 196.94 71.1552 196.94 71.5116C196.94 71.9663 197.199 72.3288 197.717 72.5992C198.247 72.8695 198.974 73.0047 199.899 73.0047ZM199.769 60.8756C200.509 60.8756 201.163 61.0108 201.73 61.2812C202.309 61.5392 202.759 61.9017 203.08 62.3687C203.4 62.8357 203.561 63.3764 203.561 63.9909C203.561 64.593 203.4 65.1337 203.08 65.613C202.759 66.08 202.309 66.4486 201.73 66.719C201.163 66.977 200.509 67.1061 199.769 67.1061C198.549 67.1061 197.612 66.8173 196.958 66.2397C196.305 65.6498 195.978 64.9002 195.978 63.9909C195.978 63.3764 196.138 62.8357 196.459 62.3687C196.792 61.9017 197.242 61.5392 197.809 61.2812C198.376 61.0108 199.03 60.8756 199.769 60.8756ZM199.769 62.0738C199.128 62.0738 198.592 62.252 198.16 62.6084C197.729 62.9524 197.513 63.4133 197.513 63.9909C197.513 64.5561 197.729 65.017 198.16 65.3733C198.592 65.7297 199.128 65.9079 199.769 65.9079C200.411 65.9079 200.947 65.7297 201.378 65.3733C201.81 65.017 202.026 64.5561 202.026 63.9909C202.026 63.4133 201.81 62.9524 201.378 62.6084C200.947 62.252 200.411 62.0738 199.769 62.0738Z" fill="white"/>
<path d="M206.931 70.2766V61.06H208.133L208.336 62.5715C208.595 62.0062 208.971 61.5822 209.464 61.2996C209.97 61.017 210.58 60.8756 211.295 60.8756C211.456 60.8756 211.628 60.8879 211.813 60.9125C212.01 60.9371 212.177 60.9862 212.313 61.06L212.054 62.4056C211.918 62.3564 211.77 62.3196 211.61 62.295C211.449 62.2704 211.221 62.2581 210.925 62.2581C210.543 62.2581 210.155 62.3687 209.76 62.5899C209.378 62.8111 209.058 63.1491 208.799 63.6038C208.54 64.0462 208.41 64.6114 208.41 65.2996V70.2766H206.931Z" fill="white"/>
<path d="M218.482 60.8756C219.357 60.8756 220.128 61.0661 220.794 61.4471C221.472 61.828 222.002 62.381 222.384 63.1061C222.766 63.8188 222.957 64.6729 222.957 65.6683C222.957 66.6637 222.766 67.5239 222.384 68.2489C222.002 68.9617 221.472 69.5085 220.794 69.8895C220.128 70.2705 219.357 70.4609 218.482 70.4609C217.619 70.4609 216.848 70.2705 216.17 69.8895C215.492 69.5085 214.962 68.9617 214.58 68.2489C214.197 67.5239 214.006 66.6637 214.006 65.6683C214.006 64.6729 214.197 63.8188 214.58 63.1061C214.962 62.381 215.492 61.828 216.17 61.4471C216.848 61.0661 217.619 60.8756 218.482 60.8756ZM218.482 62.1475C217.853 62.1475 217.317 62.2888 216.873 62.5715C216.429 62.8541 216.084 63.2597 215.837 63.7881C215.603 64.3042 215.486 64.931 215.486 65.6683C215.486 66.3933 215.603 67.0201 215.837 67.5485C216.084 68.0769 216.429 68.4824 216.873 68.7651C217.317 69.0477 217.853 69.189 218.482 69.189C219.111 69.189 219.647 69.0477 220.091 68.7651C220.535 68.4824 220.874 68.0769 221.108 67.5485C221.354 67.0201 221.478 66.3933 221.478 65.6683C221.478 64.931 221.354 64.3042 221.108 63.7881C220.874 63.2597 220.535 62.8541 220.091 62.5715C219.647 62.2888 219.111 62.1475 218.482 62.1475Z" fill="white"/>
<path d="M229.552 70.4609C228.961 70.4609 228.4 70.3503 227.87 70.1291C227.352 69.9079 226.926 69.5516 226.593 69.06C226.273 68.5562 226.113 67.9048 226.113 67.1061V61.06H227.592V66.719C227.592 67.6529 227.796 68.2981 228.202 68.6545C228.609 68.9986 229.183 69.1706 229.922 69.1706C230.268 69.1706 230.607 69.1153 230.94 69.0047C231.272 68.8818 231.568 68.6975 231.827 68.4517C232.098 68.1936 232.308 67.868 232.456 67.4747C232.616 67.0815 232.696 66.6145 232.696 66.0738V61.06H234.176V70.2766H232.881L232.789 68.8757C232.468 69.4287 232.031 69.8342 231.476 70.0923C230.933 70.338 230.292 70.4609 229.552 70.4609Z" fill="white"/>
<path d="M238.082 74.1476V61.06H239.376L239.506 63.3088L239.302 63.0508C239.463 62.6206 239.703 62.2458 240.024 61.9263C240.344 61.5945 240.733 61.3365 241.189 61.1521C241.645 60.9678 242.138 60.8756 242.668 60.8756C243.42 60.8756 244.111 61.0661 244.74 61.4471C245.381 61.828 245.892 62.3749 246.275 63.0876C246.657 63.8004 246.848 64.6606 246.848 65.6683C246.848 66.6637 246.651 67.5239 246.256 68.2489C245.874 68.9617 245.362 69.5085 244.721 69.8895C244.08 70.2705 243.377 70.4609 242.613 70.4609C241.848 70.4609 241.176 70.2766 240.597 69.9079C240.03 69.527 239.623 69.0477 239.376 68.4701L239.561 68.1936V74.1476H238.082ZM242.465 69.1706C243.377 69.1706 244.086 68.8511 244.592 68.2121C245.109 67.5731 245.368 66.7251 245.368 65.6683C245.368 64.6114 245.116 63.7635 244.61 63.1245C244.117 62.4855 243.42 62.166 242.52 62.166C241.928 62.166 241.411 62.3134 240.967 62.6084C240.523 62.891 240.178 63.2965 239.931 63.825C239.685 64.3411 239.561 64.9555 239.561 65.6683C239.561 66.3687 239.678 66.9832 239.913 67.5116C240.159 68.04 240.498 68.4517 240.93 68.7466C241.374 69.0293 241.885 69.1706 242.465 69.1706Z" fill="white"/>
</svg>
